<?xml version="1.0" standalone="no"?>
<!DOCTYPE svg PUBLIC "-//W3C//DTD SVG 20010904//EN"
 "http://www.w3.org/TR/2001/REC-SVG-20010904/DTD/svg10.dtd">
<svg version="1.0" xmlns="http://www.w3.org/2000/svg"
 width="2160.000000pt" height="2160.000000pt" viewBox="0 0 2160.000000 2160.000000"
 preserveAspectRatio="xMidYMid meet">
<metadata>
Created by potrace 1.14, written by Peter Selinger 2001-2017
</metadata>
<g transform="translate(0.000000,2160.000000) scale(0.100000,-0.100000)"
fill="#000000" stroke="none">
<path d="M0 10800 l0 -10800 10800 0 10800 0 0 10800 0 10800 -10800 0 -10800
0 0 -10800z m17280 2421 c0 -4 19 -11 42 -14 24 -3 44 -11 46 -16 2 -6 8 -11
14 -11 18 0 77 -66 84 -94 3 -14 10 -26 14 -26 4 0 11 -16 14 -35 4 -19 11
-35 16 -35 4 0 11 -13 15 -30 4 -16 11 -30 16 -30 5 0 12 -18 15 -40 4 -22 10
-40 15 -40 4 0 11 -16 15 -35 3 -19 10 -35 14 -35 5 0 11 -13 15 -30 4 -16 10
-30 15 -30 4 0 11 -12 15 -27 3 -15 11 -31 17 -34 5 -3 12 -25 15 -48 4 -25
11 -41 19 -41 9 0 14 -11 14 -29 0 -16 6 -31 15 -35 8 -3 15 -17 15 -31 0 -14
4 -25 9 -25 5 0 13 -14 16 -32 4 -17 14 -38 21 -46 8 -7 14 -27 14 -43 0 -19
5 -29 15 -29 10 0 15 -10 15 -29 0 -16 6 -31 15 -35 9 -3 15 -18 15 -36 0 -20
5 -30 15 -30 12 0 15 -17 15 -89 0 -66 -4 -93 -15 -105 -8 -8 -15 -22 -15 -30
0 -9 -7 -16 -15 -16 -8 0 -15 -7 -15 -15 0 -8 -7 -15 -15 -15 -8 0 -15 -7 -15
-15 0 -8 -7 -15 -15 -15 -8 0 -15 -7 -15 -15 0 -10 -11 -15 -35 -15 -24 0 -35
-5 -35 -15 0 -12 -13 -15 -55 -15 -42 0 -55 3 -55 15 0 10 -11 15 -35 15 -24
0 -35 5 -35 15 0 9 -9 15 -25 15 -16 0 -25 6 -25 15 0 8 -6 15 -14 15 -8 0
-17 14 -21 30 -4 17 -13 30 -21 30 -9 0 -14 11 -14 29 0 16 -6 31 -15 35 -8 3
-15 17 -15 31 0 16 -6 25 -15 25 -11 0 -15 -12 -15 -44 0 -27 -5 -46 -12 -48
-9 -3 -14 -34 -16 -91 -3 -66 -7 -87 -18 -87 -11 0 -14 -18 -14 -76 0 -54 -4
-80 -15 -90 -11 -11 -15 -37 -15 -89 0 -49 -4 -75 -12 -77 -8 -3 -14 -34 -16
-89 -3 -58 -8 -86 -18 -92 -10 -6 -14 -29 -14 -82 0 -60 -3 -75 -15 -75 -12 0
-15 -17 -15 -90 0 -73 -3 -90 -15 -90 -12 0 -15 -17 -15 -90 0 -73 -3 -90 -15
-90 -12 0 -15 -16 -15 -80 0 -64 -3 -80 -15 -80 -12 0 -15 -17 -15 -90 0 -73
-3 -90 -15 -90 -12 0 -15 -15 -15 -75 0 -60 -3 -75 -15 -75 -10 0 -15 -10 -15
-30 0 -20 -5 -30 -15 -30 -9 0 -15 -9 -15 -23 0 -26 -28 -54 -64 -63 -14 -3
-27 -12 -30 -20 -8 -21 -206 -20 -206 1 0 8 -9 15 -19 15 -22 0 -81 55 -81 75
0 7 -7 15 -15 19 -8 3 -15 17 -15 31 0 14 -4 25 -10 25 -6 0 -10 28 -10 65 0
36 4 65 9 65 4 0 11 39 14 87 4 47 10 89 15 92 5 3 13 44 17 91 4 47 11 88 16
91 5 3 12 40 15 82 4 42 10 77 15 77 4 0 10 38 14 85 4 47 11 85 15 85 4 0 11
39 15 88 4 48 11 89 16 92 5 3 12 39 15 80 4 41 11 78 16 81 4 3 11 43 15 90
3 46 10 87 15 90 4 3 11 43 15 90 3 46 10 86 14 89 5 3 12 39 15 80 4 41 12
78 18 82 6 4 13 46 15 93 1 47 7 85 12 85 5 0 9 5 9 10 0 6 -11 10 -25 10 -16
0 -25 -6 -25 -15 0 -8 -7 -15 -15 -15 -8 0 -15 -6 -15 -14 0 -21 -58 -76 -81
-76 -10 0 -19 -7 -19 -15 0 -12 -18 -15 -105 -15 -87 0 -105 3 -105 15 0 10
-10 15 -30 15 -17 0 -30 5 -30 13 -1 6 -14 23 -30 37 -17 13 -30 34 -30 46 0
12 -7 24 -15 28 -12 4 -15 24 -15 91 0 69 3 85 15 85 8 0 15 9 15 19 0 11 7
26 15 35 8 8 15 22 15 30 0 9 7 16 15 16 8 0 15 7 15 15 0 8 7 15 15 15 8 0
15 7 15 15 0 8 5 15 10 15 6 0 19 9 30 20 11 11 20 25 20 30 0 6 7 10 15 10 8
0 15 7 15 15 0 8 7 15 15 15 8 0 15 7 15 15 0 8 5 15 10 15 6 0 19 9 30 20 11
11 20 25 20 30 0 6 7 10 15 10 8 0 15 7 15 15 0 8 7 15 15 15 8 0 15 7 15 15
0 8 7 15 15 15 8 0 15 7 15 15 0 8 7 15 15 15 8 0 15 5 15 11 0 6 36 47 80 91
44 44 80 86 80 94 0 8 7 14 15 14 8 0 15 7 15 15 0 8 7 15 15 15 8 0 15 7 15
15 0 8 7 15 15 15 8 0 15 7 15 15 0 8 7 15 15 15 8 0 15 7 15 15 0 8 7 15 15
15 8 0 15 7 15 15 0 8 7 15 15 15 8 0 15 6 15 14 0 8 14 17 30 21 17 4 30 10
30 15 0 5 14 11 30 15 17 4 30 11 30 16 0 5 20 9 45 9 25 0 45 -4 45 -9z
m-7310 -666 c0 -8 9 -15 20 -15 11 0 20 -7 20 -15 0 -8 7 -15 15 -15 8 0 15
-7 15 -15 0 -8 7 -15 15 -15 8 0 15 -7 15 -15 0 -8 7 -15 15 -15 10 0 15 -10
15 -30 0 -20 5 -30 15 -30 12 0 15 -19 15 -109 0 -78 -4 -113 -13 -123 -8 -7
-17 -26 -21 -41 -3 -15 -11 -27 -16 -27 -6 0 -10 -9 -10 -20 0 -11 -7 -20 -15
-20 -8 0 -15 -7 -15 -15 0 -8 -7 -15 -15 -15 -8 0 -15 -7 -15 -15 0 -8 -7 -15
-15 -15 -8 0 -15 -7 -15 -15 0 -8 -6 -15 -14 -15 -8 0 -16 -7 -20 -15 -3 -8
-17 -15 -31 -15 -16 0 -25 -6 -25 -15 0 -10 -10 -15 -31 -15 -17 0 -38 -7 -46
-16 -13 -13 -38 -15 -151 -12 -97 2 -137 7 -140 16 -2 6 -15 12 -28 12 -14 0
-27 7 -30 15 -4 8 -12 15 -20 15 -8 0 -14 7 -14 15 0 8 -7 15 -15 15 -8 0 -15
7 -15 15 0 8 -7 15 -15 15 -10 0 -15 10 -15 30 0 20 -5 30 -15 30 -12 0 -15
20 -15 120 0 100 3 120 15 120 10 0 15 10 15 30 0 20 5 30 15 30 8 0 15 9 15
20 0 11 7 20 15 20 8 0 15 7 15 15 0 8 7 15 15 15 8 0 15 7 15 15 0 8 7 15 15
15 8 0 15 7 15 15 0 8 7 15 15 15 8 0 15 7 15 15 0 8 6 15 14 15 8 0 16 7 20
15 3 8 17 15 31 15 15 0 33 7 41 15 13 12 47 15 180 15 139 0 164 -2 164 -15z
m3857 -306 c-3 -56 -9 -105 -15 -108 -5 -3 -12 -42 -15 -85 -3 -43 -10 -82
-16 -85 -5 -4 -13 -41 -17 -84 -4 -42 -10 -77 -14 -77 -4 0 -11 -40 -15 -90
-4 -49 -11 -90 -15 -90 -4 0 -11 -40 -15 -90 -4 -49 -11 -90 -15 -90 -5 0 -12
-35 -15 -77 -4 -43 -12 -81 -16 -84 -5 -3 -12 -43 -16 -90 -3 -46 -10 -87 -15
-90 -5 -3 -11 -45 -15 -92 -3 -48 -9 -87 -13 -87 -4 0 -10 -22 -14 -50 -11
-79 14 -139 29 -70 4 17 13 30 21 30 8 0 14 7 14 15 0 8 7 15 15 15 8 0 15 4
15 10 0 5 34 43 75 83 41 41 75 77 75 81 0 4 27 35 60 68 33 33 60 66 60 74 0
8 7 14 15 14 8 0 15 7 15 15 0 8 7 15 15 15 8 0 15 7 15 15 0 8 7 15 15 15 8
0 15 6 15 13 1 6 14 23 30 37 17 13 30 30 30 37 0 7 7 13 15 13 8 0 15 7 15
15 0 8 7 15 15 15 8 0 15 7 15 15 0 8 7 15 15 15 8 0 15 7 15 15 0 8 7 15 15
15 8 0 15 7 15 15 0 8 7 15 15 15 8 0 15 7 15 15 0 8 7 15 15 15 8 0 15 7 15
15 0 8 7 15 15 15 9 0 15 9 15 25 0 14 7 28 15 31 8 4 15 12 15 20 0 12 66 14
410 14 358 0 410 -2 410 -15 0 -8 -7 -15 -15 -15 -8 0 -15 -7 -15 -15 0 -8 -7
-15 -15 -15 -8 0 -15 -7 -15 -15 0 -8 -7 -15 -15 -15 -8 0 -15 -7 -15 -15 0
-8 -7 -15 -15 -15 -8 0 -15 -7 -15 -15 0 -8 -7 -15 -15 -15 -8 0 -15 -7 -15
-15 0 -8 -7 -15 -15 -15 -8 0 -15 -7 -15 -15 0 -8 -7 -15 -15 -15 -8 0 -15 -7
-15 -15 0 -8 -7 -15 -15 -15 -8 0 -15 -7 -15 -15 0 -8 -7 -15 -15 -15 -8 0
-15 -5 -15 -11 0 -6 -58 -69 -129 -140 -71 -71 -134 -129 -140 -129 -6 0 -11
-7 -11 -15 0 -8 -7 -15 -15 -15 -8 0 -15 -7 -15 -15 0 -8 -7 -15 -15 -15 -8 0
-15 -7 -15 -15 0 -8 -7 -15 -15 -15 -8 0 -15 -7 -15 -15 0 -8 -7 -15 -15 -15
-8 0 -15 -7 -15 -15 0 -8 -7 -15 -15 -15 -8 0 -15 -7 -15 -15 0 -8 -7 -15 -15
-15 -8 0 -15 -7 -15 -15 0 -8 -7 -15 -15 -15 -8 0 -15 -7 -15 -15 0 -8 -7 -15
-15 -15 -8 0 -15 -7 -15 -15 0 -8 -7 -15 -15 -15 -8 0 -15 -7 -15 -15 0 -8 -7
-15 -15 -15 -8 0 -15 -7 -15 -15 0 -8 -7 -15 -15 -15 -8 0 -15 -7 -15 -15 0
-8 -7 -15 -15 -15 -8 0 -15 -7 -15 -15 0 -8 -7 -15 -15 -15 -8 0 -15 -7 -15
-15 0 -8 -7 -15 -15 -15 -8 0 -15 -7 -15 -15 0 -8 -7 -15 -15 -15 -8 0 -15 -7
-15 -15 0 -8 -7 -15 -15 -15 -8 0 -15 -7 -15 -15 0 -8 -7 -15 -15 -15 -8 0
-15 -7 -15 -15 0 -8 7 -15 15 -15 8 0 15 -9 15 -20 0 -11 7 -20 15 -20 9 0 15
-9 15 -25 0 -16 6 -25 15 -25 8 0 15 -9 15 -20 0 -11 7 -20 15 -20 9 0 15 -9
15 -25 0 -16 6 -25 15 -25 8 0 15 -9 15 -20 0 -11 7 -20 15 -20 9 0 15 -9 15
-25 0 -16 6 -25 15 -25 8 0 15 -9 15 -20 0 -11 7 -20 15 -20 9 0 15 -9 15 -25
0 -14 7 -28 15 -31 8 -4 15 -12 15 -20 0 -8 7 -14 15 -14 9 0 15 -9 15 -25 0
-14 7 -28 15 -31 8 -4 15 -12 15 -20 0 -8 7 -14 15 -14 9 0 15 -9 15 -25 0
-14 7 -28 15 -31 8 -4 15 -12 15 -20 0 -8 6 -14 14 -14 8 0 17 -13 21 -30 4
-16 10 -30 15 -30 5 0 11 -13 15 -30 4 -16 11 -30 16 -30 5 0 9 -7 9 -15 0 -8
6 -15 14 -15 8 0 17 -13 21 -30 4 -16 13 -30 21 -30 8 0 14 -7 14 -15 0 -8 4
-15 9 -15 5 0 12 -13 16 -30 4 -16 13 -30 21 -30 8 0 14 -7 14 -15 0 -8 4 -15
9 -15 5 0 12 -13 16 -30 4 -16 13 -30 21 -30 8 0 14 -6 14 -14 0 -8 7 -16 15
-20 8 -3 15 -17 15 -31 l0 -25 -410 0 -410 0 0 30 c0 20 -5 30 -15 30 -9 0
-15 9 -15 25 0 14 -7 28 -15 31 -8 4 -15 17 -15 30 0 14 -7 27 -15 30 -8 4
-15 12 -15 19 0 8 -6 20 -14 27 -7 8 -17 29 -21 46 -3 18 -11 32 -16 32 -5 0
-9 7 -9 15 0 8 -6 15 -14 15 -8 0 -17 14 -21 30 -4 17 -10 30 -15 30 -5 0 -11
14 -15 30 -4 17 -10 30 -15 30 -5 0 -11 14 -15 30 -4 17 -10 30 -15 30 -5 0
-11 13 -15 29 -3 16 -13 32 -21 35 -8 3 -14 12 -14 21 0 8 -4 15 -10 15 -5 0
-12 11 -16 25 -3 14 -10 25 -14 25 -5 0 -11 13 -15 29 -3 16 -13 32 -21 35 -8
3 -14 16 -14 30 0 13 -7 26 -15 30 -8 3 -15 17 -15 31 0 16 -6 25 -15 25 -9 0
-15 9 -15 21 0 37 -25 14 -28 -27 -2 -21 -8 -42 -14 -45 -6 -4 -13 -45 -16
-91 -3 -56 -9 -86 -18 -91 -10 -6 -14 -30 -14 -82 0 -49 -4 -75 -12 -77 -8 -3
-14 -34 -16 -89 -3 -48 -9 -87 -16 -91 -6 -4 -12 -43 -15 -93 -2 -64 -6 -85
-17 -85 -10 0 -14 -13 -14 -45 l0 -45 -335 0 -335 0 6 28 c4 15 10 29 14 32 5
3 11 44 15 93 4 48 11 87 15 87 4 0 11 41 15 90 4 50 11 90 15 90 5 0 12 36
16 80 3 44 10 80 14 80 4 0 11 37 15 82 4 46 11 86 16 89 5 3 12 43 16 90 3
46 10 87 16 90 5 4 12 40 15 80 2 41 9 77 14 80 4 3 11 43 15 90 3 46 10 87
15 90 5 3 11 45 15 92 4 63 10 87 19 87 11 0 14 19 14 76 0 54 4 80 15 90 11
11 15 37 15 89 0 48 4 75 12 77 8 3 14 33 16 79 3 41 9 77 16 81 6 4 12 44 15
89 2 53 8 88 17 97 10 9 14 38 14 92 0 52 4 80 12 82 8 3 14 33 16 78 3 44 10
79 18 88 9 9 14 38 14 88 0 54 4 80 15 90 11 11 15 37 15 90 0 59 3 74 15 74
10 0 15 10 15 30 l0 30 321 0 322 0 -6 -101z m-8267 62 c0 -4 32 -12 70 -15
39 -4 70 -11 70 -16 0 -5 14 -11 30 -15 17 -4 30 -11 30 -16 0 -5 9 -9 19 -9
11 0 26 -7 35 -15 8 -8 20 -15 26 -15 6 0 13 -7 16 -15 3 -8 15 -17 25 -20 25
-8 159 -143 159 -160 0 -7 7 -15 15 -19 8 -3 15 -12 15 -21 0 -8 4 -15 9 -15
5 0 12 -12 16 -27 3 -15 11 -30 16 -34 5 -3 12 -23 16 -45 3 -21 11 -42 17
-46 7 -5 12 -70 14 -183 3 -152 1 -176 -12 -181 -11 -4 -16 -19 -16 -45 0 -26
-5 -42 -15 -45 -8 -4 -15 -17 -15 -30 0 -14 -7 -27 -15 -30 -8 -4 -15 -17 -15
-30 0 -15 -6 -24 -15 -24 -8 0 -15 -7 -15 -15 0 -9 -7 -18 -15 -21 -8 -4 -15
-12 -15 -20 0 -8 -7 -14 -15 -14 -8 0 -15 -7 -15 -15 0 -8 -7 -15 -15 -15 -8
0 -15 -7 -15 -15 0 -8 -7 -15 -15 -15 -8 0 -15 -7 -15 -15 0 -8 -6 -15 -14
-15 -8 0 -16 -7 -20 -15 -3 -8 -12 -15 -21 -15 -8 0 -15 -7 -15 -15 0 -10 -10
-15 -30 -15 -20 0 -30 -5 -30 -15 0 -10 -10 -15 -30 -15 -20 0 -30 -5 -30 -15
0 -11 -12 -15 -45 -15 -33 0 -45 -4 -45 -15 0 -13 -25 -15 -165 -15 -140 0
-165 2 -165 15 0 11 -12 15 -45 15 -33 0 -45 4 -45 15 0 10 -10 15 -30 15 -18
0 -33 6 -36 15 -4 8 -17 15 -30 15 -15 0 -24 6 -24 15 0 8 -9 15 -20 15 -11 0
-20 7 -20 15 0 12 -13 15 -60 15 -47 0 -60 -3 -60 -15 0 -9 -9 -15 -24 -15
-13 0 -26 -7 -30 -15 -3 -8 -16 -15 -30 -15 -13 0 -26 -7 -30 -15 -3 -8 -17
-15 -31 -15 -16 0 -25 -6 -25 -15 0 -10 -10 -15 -30 -15 -20 0 -30 -5 -30 -15
0 -10 -10 -15 -29 -15 -16 0 -31 -6 -35 -15 -3 -8 -16 -15 -30 -15 -13 0 -26
-7 -30 -15 -3 -9 -18 -15 -36 -15 -20 0 -30 -5 -30 -15 0 -10 -10 -15 -30 -15
-20 0 -30 -5 -30 -15 0 -8 -7 -15 -15 -15 -8 0 -15 -7 -15 -15 0 -10 -10 -15
-30 -15 -20 0 -30 -5 -30 -15 0 -8 -7 -15 -15 -15 -12 0 -15 -20 -15 -120 l0
-120 30 0 c20 0 30 -5 30 -15 0 -8 7 -15 15 -15 8 0 15 -7 15 -15 0 -10 10
-15 30 -15 20 0 30 -5 30 -15 0 -8 7 -15 15 -15 8 0 15 -7 15 -15 0 -10 10
-15 30 -15 19 0 30 -5 30 -14 0 -8 12 -17 26 -20 14 -4 35 -17 47 -30 12 -13
33 -27 46 -31 13 -4 34 -18 46 -30 11 -13 33 -27 47 -30 15 -4 29 -13 32 -21
3 -8 12 -14 21 -14 8 0 15 -4 15 -10 0 -5 11 -12 24 -16 14 -3 27 -12 30 -20
7 -19 85 -19 92 0 3 8 19 18 35 21 16 4 29 11 29 16 0 5 13 9 29 9 16 0 36 6
43 13 7 8 45 17 83 21 39 4 72 11 73 16 5 13 102 13 102 1 0 -5 41 -12 90 -16
50 -4 90 -11 90 -15 0 -5 14 -11 30 -15 17 -4 30 -10 30 -15 0 -5 14 -11 30
-15 17 -4 30 -10 30 -15 0 -5 14 -11 30 -15 17 -4 30 -13 30 -21 0 -8 9 -14
20 -14 11 0 20 -7 20 -15 0 -8 5 -15 10 -15 15 0 80 -64 80 -79 0 -6 7 -11 15
-11 8 0 15 -7 15 -15 0 -8 5 -15 10 -15 6 0 10 -6 10 -14 0 -8 6 -21 14 -28 7
-8 17 -29 21 -46 3 -18 10 -32 15 -32 4 0 11 -12 15 -27 3 -15 11 -31 17 -34
6 -4 13 -32 16 -63 2 -31 8 -56 13 -56 5 0 9 -43 9 -95 0 -52 -4 -95 -9 -95
-5 0 -11 -30 -13 -66 -2 -36 -9 -68 -15 -72 -6 -4 -14 -22 -18 -39 -3 -18 -10
-33 -15 -33 -5 0 -11 -13 -15 -30 -4 -16 -11 -30 -16 -30 -5 0 -9 -7 -9 -15 0
-8 -9 -23 -20 -32 -11 -10 -20 -23 -20 -30 0 -7 -7 -13 -15 -13 -8 0 -15 -7
-15 -15 0 -8 -7 -15 -15 -15 -8 0 -15 -7 -15 -15 0 -8 -7 -15 -15 -15 -8 0
-15 -7 -15 -15 0 -8 -7 -15 -15 -15 -8 0 -15 -7 -15 -15 0 -9 -9 -15 -25 -15
-16 0 -25 -6 -25 -15 0 -8 -9 -15 -20 -15 -11 0 -20 -7 -20 -15 0 -10 -10 -15
-30 -15 -20 0 -30 -5 -30 -15 0 -11 -12 -15 -45 -15 -33 0 -45 -4 -45 -15 0
-13 -27 -15 -180 -15 -153 0 -180 2 -180 15 0 11 -12 15 -50 15 -38 0 -50 4
-50 15 0 10 -10 15 -30 15 -20 0 -30 5 -30 15 0 9 -9 15 -25 15 -16 0 -25 6
-25 15 0 8 -9 15 -20 15 -11 0 -20 7 -20 15 0 8 -7 15 -15 15 -8 0 -15 7 -15
15 0 8 -7 15 -15 15 -8 0 -15 7 -15 15 0 8 -7 15 -15 15 -8 0 -15 7 -15 15 0
8 -7 15 -15 15 -8 0 -15 7 -15 15 0 8 -7 15 -15 15 -8 0 -15 9 -15 20 0 11 -4
20 -10 20 -5 0 -12 11 -16 24 -3 14 -12 27 -20 30 -8 3 -14 17 -14 31 0 15 -7
33 -15 41 -8 9 -15 29 -15 45 0 17 -7 37 -15 45 -12 12 -15 46 -15 170 0 130
-2 154 -15 154 -8 0 -15 7 -15 15 0 10 -10 15 -30 15 -20 0 -30 5 -30 15 0 8
-7 15 -15 15 -8 0 -15 7 -15 15 0 10 -10 15 -30 15 -20 0 -30 5 -30 15 0 8 -7
15 -15 15 -8 0 -15 7 -15 15 0 10 -10 15 -30 15 -20 0 -30 5 -30 15 0 8 -7 15
-15 15 -9 0 -18 7 -21 15 -4 8 -17 15 -30 15 -15 0 -24 6 -24 15 0 8 -9 15
-20 15 -11 0 -20 7 -20 15 0 9 -9 15 -25 15 -16 0 -25 6 -25 15 0 8 -9 15 -20
15 -11 0 -20 7 -20 15 0 9 -9 15 -25 15 -16 0 -25 6 -25 15 0 8 -9 15 -20 15
-11 0 -20 7 -20 15 0 9 -10 15 -26 15 -14 0 -32 -7 -40 -15 -9 -8 -24 -15 -35
-15 -10 0 -19 -7 -19 -15 0 -9 -10 -15 -26 -15 -14 0 -32 -7 -40 -15 -9 -8
-29 -15 -45 -15 -17 0 -37 -7 -45 -15 -12 -12 -46 -15 -170 -15 -130 0 -154 2
-154 15 0 11 -12 15 -45 15 -33 0 -45 4 -45 15 0 10 -10 15 -30 15 -18 0 -33
6 -36 15 -4 8 -17 15 -30 15 -15 0 -24 6 -24 15 0 8 -9 15 -19 15 -11 0 -26 7
-35 15 -8 8 -19 15 -25 15 -6 0 -11 7 -11 15 0 8 -7 15 -15 15 -8 0 -15 7 -15
15 0 8 -7 15 -15 15 -8 0 -15 6 -15 13 0 7 -9 20 -20 30 -11 9 -20 23 -20 31
0 8 -7 16 -15 20 -8 3 -15 12 -15 21 0 8 -4 15 -9 15 -5 0 -12 14 -16 30 -4
17 -11 30 -16 30 -5 0 -12 18 -15 39 -4 22 -13 42 -20 45 -10 4 -14 24 -14 66
0 33 -4 60 -10 60 -6 0 -10 37 -10 90 0 50 4 90 9 90 5 0 11 25 13 56 3 31 10
59 17 63 7 5 15 27 18 50 3 22 10 41 14 41 5 0 9 7 9 15 0 9 6 18 14 21 8 3
17 16 20 30 4 13 11 24 16 24 6 0 10 5 10 11 0 14 135 149 149 149 6 0 11 4
11 9 0 5 11 12 25 15 14 4 25 10 25 15 0 5 14 12 30 16 17 4 30 10 30 15 0 5
15 12 33 15 17 4 35 12 39 18 3 6 31 12 62 15 31 2 56 8 56 13 0 5 43 9 95 9
52 0 95 -4 95 -9 0 -5 30 -11 67 -13 38 -2 68 -9 71 -16 2 -6 19 -14 38 -18
19 -3 34 -10 34 -14 0 -4 11 -11 25 -14 14 -4 25 -11 25 -16 0 -6 7 -10 15
-10 9 0 18 -7 21 -15 4 -8 12 -15 20 -15 7 0 21 -9 31 -20 18 -19 63 -19 63 0
0 5 14 11 30 15 17 4 30 10 30 15 0 5 13 11 29 15 16 3 32 13 35 21 3 8 12 14
21 14 8 0 15 4 15 9 0 5 14 12 30 16 17 4 30 10 30 15 0 5 14 11 30 15 17 4
30 10 30 15 0 5 14 11 30 15 17 4 30 10 30 15 0 5 14 11 30 15 17 4 30 10 30
15 0 5 13 11 29 15 16 3 32 13 35 21 3 8 16 14 30 14 13 0 26 7 30 15 3 8 16
15 30 15 13 0 26 7 30 15 3 8 12 15 21 15 8 0 15 6 15 14 0 8 6 17 13 20 10 5
10 7 0 12 -15 6 -18 44 -4 44 5 0 11 46 13 102 2 70 7 103 16 106 6 2 12 17
12 33 0 19 5 29 15 29 10 0 15 10 15 30 0 19 5 30 14 30 8 0 17 14 21 30 4 17
11 30 16 30 5 0 9 7 9 15 0 8 7 15 15 15 8 0 15 5 15 11 0 15 65 79 80 79 5 0
10 7 10 15 0 8 6 15 13 15 7 0 20 9 30 20 9 11 24 20 32 20 8 0 15 4 15 9 0 5
14 12 30 16 17 4 30 11 30 15 0 5 16 12 35 16 19 3 35 10 35 15 0 4 32 11 70
15 39 3 70 11 70 15 0 5 38 9 85 9 47 0 85 -4 85 -9z m2655 -138 c-3 -16 -11
-29 -16 -31 -5 -2 -9 -35 -9 -73 0 -53 -4 -71 -15 -75 -12 -5 -15 -25 -15 -95
0 -70 -3 -89 -14 -89 -11 0 -15 -21 -18 -87 -2 -57 -7 -88 -16 -91 -8 -2 -12
-27 -12 -77 0 -52 -4 -76 -14 -82 -9 -5 -15 -35 -18 -91 -3 -46 -9 -87 -15
-90 -5 -4 -13 -45 -16 -91 -4 -47 -11 -87 -15 -90 -5 -3 -12 -37 -15 -75 -2
-38 -9 -71 -15 -75 -5 -3 -11 -43 -13 -89 -3 -47 -9 -86 -16 -90 -6 -4 -14
-46 -18 -94 -4 -49 -11 -88 -15 -88 -4 0 -11 -36 -14 -80 -4 -44 -11 -80 -16
-80 -4 0 -11 -40 -15 -90 -4 -49 -11 -90 -15 -90 -4 0 -11 -39 -15 -87 -4 -49
-10 -90 -15 -93 -4 -3 -10 -24 -14 -47 l-6 -43 425 0 425 0 0 -89 c0 -62 -4
-91 -12 -93 -8 -3 -14 -34 -16 -89 -3 -46 -9 -87 -15 -91 -6 -4 -13 -39 -15
-77 l-4 -71 -769 0 -769 0 0 29 c0 16 5 31 10 33 6 2 13 41 17 88 3 47 11 88
17 92 6 4 12 44 15 90 2 46 8 86 14 90 6 4 13 40 15 80 3 40 9 76 16 80 6 4
12 44 15 89 2 53 8 88 17 97 9 9 14 38 14 87 0 56 4 74 15 79 11 4 15 23 15
80 0 50 4 76 12 78 8 3 14 34 16 89 3 48 9 87 16 91 6 4 12 43 15 93 2 64 6
85 17 85 11 0 14 18 14 80 0 64 3 80 15 80 12 0 15 17 15 90 0 73 3 90 15 90
12 0 15 16 15 85 0 69 3 85 15 85 12 0 15 16 15 80 0 64 3 80 15 80 12 0 15
17 15 90 0 73 3 90 15 90 12 0 15 15 15 79 0 57 4 84 15 95 11 10 15 36 15 86
0 54 4 72 15 76 10 4 15 20 15 45 l0 39 336 0 336 0 -7 -27z m3749 -528 c9 -9
33 -15 60 -15 34 0 46 -4 46 -15 0 -10 10 -15 30 -15 20 0 30 -5 30 -15 0 -10
10 -15 30 -15 20 0 30 -5 30 -15 0 -8 7 -15 15 -15 8 0 15 -7 15 -15 0 -8 7
-15 15 -15 8 0 15 -7 15 -15 0 -8 7 -15 15 -15 8 0 15 -7 15 -15 0 -8 7 -15
15 -15 8 0 15 -7 15 -15 0 -8 7 -15 15 -15 8 0 15 -7 15 -15 0 -8 7 -15 15
-15 10 0 15 -10 15 -30 0 -20 5 -30 15 -30 10 0 15 -10 15 -30 0 -18 6 -33 15
-36 10 -4 15 -20 15 -49 0 -25 6 -50 15 -59 12 -12 15 -48 15 -194 0 -132 -3
-181 -12 -184 -8 -3 -14 -33 -16 -78 -3 -44 -10 -79 -18 -88 -9 -9 -14 -38
-14 -88 0 -54 -4 -80 -15 -90 -11 -11 -15 -37 -15 -89 0 -56 -4 -74 -15 -79
-11 -4 -15 -23 -15 -81 0 -60 -3 -75 -15 -75 -12 0 -15 -17 -15 -90 0 -73 -3
-90 -15 -90 -12 0 -15 -17 -15 -90 0 -73 -3 -90 -15 -90 -12 0 -15 -15 -15
-75 0 -60 -3 -75 -15 -75 -12 0 -15 -13 -15 -60 l0 -60 -335 0 -335 0 0 25 c0
13 6 28 14 32 10 6 15 34 18 91 2 46 8 86 14 90 6 4 13 38 16 75 2 38 9 71 14
75 6 4 14 45 17 91 4 47 11 87 15 90 5 3 12 44 15 90 3 46 10 87 15 90 5 3 12
39 14 80 3 40 10 76 16 80 5 3 13 44 17 91 4 47 12 88 18 92 16 10 16 346 0
356 -6 4 -15 20 -18 35 -4 15 -13 27 -21 27 -8 0 -14 7 -14 15 0 8 -7 15 -15
15 -8 0 -15 6 -15 14 0 8 -11 17 -25 20 -14 4 -25 11 -25 16 0 6 -16 10 -35
10 -24 0 -35 5 -35 15 0 12 -20 15 -119 15 -76 0 -121 -4 -123 -11 -2 -5 -22
-13 -46 -16 -26 -3 -42 -11 -42 -19 0 -9 -11 -14 -30 -14 -20 0 -30 -5 -30
-15 0 -8 -7 -15 -15 -15 -8 0 -15 -7 -15 -15 0 -8 -7 -15 -15 -15 -8 0 -15 -7
-15 -15 0 -8 -7 -15 -15 -15 -8 0 -15 -7 -15 -15 0 -8 -7 -15 -15 -15 -8 0
-15 -7 -15 -15 0 -8 -7 -15 -15 -15 -10 0 -15 -10 -15 -30 0 -19 -5 -30 -14
-30 -8 0 -15 -16 -19 -41 -3 -23 -10 -45 -15 -48 -5 -3 -12 -24 -15 -45 -4
-22 -10 -42 -15 -45 -5 -3 -12 -44 -15 -90 -4 -47 -11 -87 -15 -90 -5 -3 -12
-39 -14 -80 -3 -40 -10 -76 -16 -80 -5 -3 -13 -45 -17 -93 -4 -49 -11 -88 -15
-88 -4 0 -11 -40 -15 -90 -4 -49 -11 -90 -15 -90 -4 0 -11 -40 -15 -90 -4 -49
-11 -90 -15 -90 -5 0 -12 -36 -16 -80 -3 -44 -10 -80 -15 -80 -4 0 -11 -31
-15 -70 l-7 -70 -328 0 -329 0 0 59 c0 37 4 61 12 63 7 3 14 32 16 74 3 38 10
72 16 76 6 4 13 45 15 94 2 57 8 92 17 102 9 9 14 38 14 87 0 49 4 75 12 77 8
3 14 34 16 89 3 58 8 86 18 92 10 6 14 29 14 78 0 49 5 75 15 85 11 11 15 38
15 95 0 64 3 79 15 79 12 0 15 17 15 90 0 73 3 90 15 90 12 0 15 16 15 80 0
64 3 80 15 80 12 0 15 17 15 90 0 73 3 90 15 90 12 0 15 16 15 85 0 69 3 85
15 85 12 0 15 16 15 80 0 64 3 80 15 80 12 0 15 15 15 75 l0 75 336 0 336 0
-4 -57 c-3 -31 -10 -59 -16 -61 -7 -2 -12 -27 -12 -63 0 -46 3 -59 15 -59 8 0
15 7 15 15 0 8 7 15 15 15 8 0 15 5 15 10 0 6 7 10 15 10 8 0 23 9 32 20 10
11 23 20 30 20 7 0 13 7 13 15 0 8 7 15 15 15 8 0 15 4 15 9 0 5 14 12 30 16
17 4 30 13 30 21 0 9 11 14 30 14 20 0 30 5 30 15 0 11 12 15 45 15 33 0 45 4
45 15 0 11 12 15 45 15 25 0 45 4 45 9 0 16 29 19 217 20 149 1 184 -2 197
-14z m-2018 -87 c-4 -40 -10 -75 -15 -78 -4 -3 -11 -43 -14 -89 -3 -46 -10
-87 -15 -90 -5 -3 -13 -41 -17 -83 -3 -43 -10 -78 -15 -78 -4 0 -11 -40 -15
-90 -4 -49 -11 -90 -15 -90 -4 0 -11 -40 -15 -90 -4 -49 -11 -90 -15 -90 -4 0
-10 -35 -14 -77 -4 -43 -12 -80 -17 -83 -5 -4 -12 -44 -16 -91 -3 -46 -10 -87
-14 -90 -5 -3 -12 -41 -15 -85 -4 -43 -11 -82 -16 -85 -4 -3 -11 -43 -15 -90
-3 -46 -10 -87 -16 -90 -5 -4 -12 -40 -15 -80 -2 -41 -10 -77 -16 -81 -6 -4
-12 -44 -15 -90 -2 -47 -8 -86 -15 -90 -6 -4 -12 -43 -14 -90 -3 -57 -8 -85
-18 -91 -8 -5 -14 -24 -14 -47 l0 -40 -330 0 -330 0 0 29 c0 16 5 31 10 33 6
2 13 41 17 88 3 47 10 88 15 91 4 3 11 43 15 90 3 46 10 86 14 89 5 3 12 39
15 80 4 41 11 78 16 81 4 3 11 43 15 90 4 48 12 89 20 97 9 9 13 40 13 92 0
53 4 80 12 82 8 3 14 33 16 84 3 53 9 82 18 87 10 6 14 29 14 82 0 49 4 75 12
77 8 3 14 34 16 89 3 48 9 87 16 91 6 4 12 43 15 93 2 64 6 85 17 85 11 0 14
18 14 76 0 54 4 80 15 90 11 11 15 37 15 90 0 54 4 80 15 90 11 11 15 38 15
95 l0 79 336 0 337 0 -7 -72z m5970 -183 c4 -8 17 -15 31 -15 16 0 27 -7 30
-20 3 -11 12 -20 19 -20 8 0 14 -5 14 -11 0 -6 7 -17 15 -25 8 -9 15 -28 15
-44 0 -16 7 -30 15 -34 21 -8 22 -126 1 -126 -11 0 -15 -21 -18 -87 -2 -57 -7
-88 -16 -91 -8 -2 -12 -27 -12 -78 0 -59 -3 -74 -15 -74 -12 0 -15 -17 -15
-90 0 -70 -3 -90 -14 -90 -11 0 -15 -21 -18 -87 -2 -57 -7 -88 -16 -91 -8 -2
-12 -28 -12 -78 0 -57 -4 -76 -15 -80 -12 -5 -15 -25 -15 -90 0 -60 -4 -85
-14 -91 -10 -6 -15 -34 -18 -91 -2 -46 -8 -86 -14 -90 -6 -4 -14 -40 -16 -81
-3 -40 -10 -76 -16 -80 -5 -3 -11 -42 -14 -85 -2 -51 -8 -81 -16 -84 -8 -2
-12 -30 -12 -88 0 -103 13 -121 95 -130 30 -4 55 -10 55 -14 0 -4 39 -11 88
-15 48 -4 90 -11 93 -16 3 -5 43 -12 90 -16 46 -3 86 -10 89 -14 3 -5 39 -12
80 -15 41 -4 78 -11 81 -16 3 -4 43 -11 90 -15 46 -3 87 -10 90 -15 3 -6 44
-12 90 -15 46 -3 87 -11 91 -16 4 -6 37 -13 75 -15 37 -3 71 -10 75 -16 4 -6
44 -12 90 -15 47 -2 86 -8 90 -15 4 -6 43 -12 90 -15 46 -2 85 -7 88 -11 3 -4
17 -10 33 -14 20 -5 27 -3 27 9 0 8 7 15 15 15 10 0 15 10 15 30 0 19 5 30 14
30 9 0 15 19 19 61 3 34 10 65 15 68 5 3 11 44 14 89 3 46 9 87 15 90 5 4 13
45 16 91 4 47 11 87 15 90 5 3 12 37 15 75 2 38 9 71 15 75 5 3 13 45 17 94 4
48 11 87 15 87 4 0 11 41 15 90 4 50 11 90 15 90 4 0 11 36 14 80 4 44 11 80
16 80 4 0 11 39 15 88 4 48 12 90 17 93 5 3 12 44 15 90 3 46 10 86 14 89 5 3
11 38 15 78 4 40 11 72 15 72 5 0 9 10 9 23 0 38 12 67 26 67 8 0 14 7 14 15
0 8 5 15 10 15 6 0 10 7 10 15 0 8 9 15 20 15 11 0 20 6 20 14 0 8 11 17 25
20 14 4 25 11 25 16 0 6 34 10 80 10 44 0 80 -4 80 -9 0 -5 14 -12 30 -16 17
-4 30 -11 30 -16 0 -5 7 -9 15 -9 8 0 15 -7 15 -15 0 -8 6 -15 13 -15 19 0 44
-34 52 -69 4 -17 11 -31 16 -31 16 0 11 -150 -6 -166 -11 -11 -15 -37 -15 -89
0 -50 -4 -75 -12 -77 -9 -3 -14 -34 -16 -91 -3 -66 -7 -87 -18 -87 -11 0 -14
-18 -14 -80 0 -64 -3 -80 -15 -80 -12 0 -15 -17 -15 -90 0 -73 -3 -90 -15 -90
-12 0 -15 -17 -15 -90 0 -73 -3 -90 -15 -90 -12 0 -15 -16 -15 -80 0 -64 -3
-80 -15 -80 -12 0 -15 -16 -15 -85 0 -67 -3 -87 -15 -91 -11 -5 -15 -23 -15
-79 0 -52 -4 -78 -15 -89 -11 -10 -15 -36 -15 -90 0 -61 -3 -76 -15 -76 -12 0
-15 -14 -15 -70 0 -54 -4 -72 -15 -76 -9 -4 -15 -19 -15 -35 0 -19 -5 -29 -15
-29 -10 0 -15 -10 -15 -30 0 -20 -5 -30 -15 -30 -10 0 -15 -10 -15 -30 0 -20
-5 -30 -15 -30 -8 0 -15 -5 -15 -11 0 -7 -16 -27 -35 -46 -19 -19 -35 -40 -35
-48 0 -8 -6 -15 -14 -15 -8 0 -28 -13 -44 -30 -17 -16 -38 -30 -46 -30 -9 0
-16 -7 -16 -15 0 -10 -10 -15 -29 -15 -16 0 -36 -6 -43 -14 -8 -7 -39 -16 -71
-20 -31 -4 -57 -12 -57 -17 0 -14 -68 -11 -72 3 -3 8 -34 14 -89 16 -47 3 -87
9 -91 16 -4 6 -43 12 -90 15 -46 2 -86 8 -90 14 -4 6 -40 13 -80 15 -40 3 -76
9 -80 16 -4 6 -44 12 -89 15 -53 2 -88 8 -97 17 -9 9 -38 14 -88 14 -54 0 -80
4 -90 15 -11 10 -36 15 -79 15 -41 0 -65 4 -67 12 -3 8 -34 14 -89 16 -48 3
-87 9 -91 16 -4 6 -43 12 -93 15 -64 2 -85 6 -85 17 0 11 -18 14 -80 14 -64 0
-80 3 -80 15 0 12 -16 15 -85 15 -69 0 -85 3 -85 15 0 10 -11 15 -35 15 -24 0
-35 5 -35 15 0 9 -9 15 -25 15 -16 0 -25 6 -25 15 0 8 -9 15 -20 15 -11 0 -20
7 -20 15 0 8 -7 15 -15 15 -8 0 -15 7 -15 15 0 8 -7 15 -15 15 -8 0 -15 9 -15
20 0 11 -4 20 -10 20 -5 0 -12 11 -16 25 -3 14 -12 25 -20 25 -9 0 -14 11 -14
30 0 20 -5 30 -15 30 -11 0 -15 12 -15 45 0 34 -4 45 -16 45 -13 0 -15 27 -12
227 2 170 6 227 16 231 8 2 12 27 12 78 0 59 3 74 15 74 12 0 15 17 15 90 0
70 3 90 14 90 11 0 15 21 18 87 2 57 7 88 16 91 8 2 12 28 12 78 0 57 4 76 15
80 12 5 15 25 15 90 0 60 4 85 14 91 10 6 15 34 18 91 2 46 8 86 14 90 6 4 14
40 16 81 3 40 10 76 16 80 5 3 11 41 14 84 2 43 8 81 14 85 6 4 14 45 17 92 3
47 10 86 16 88 6 2 11 12 11 22 0 11 16 34 35 53 19 19 35 39 35 46 0 6 11 11
24 11 13 0 26 7 30 15 4 12 26 15 106 15 80 0 102 -3 106 -15z m-1186 -2095
c0 -5 5 -10 11 -10 23 0 89 -77 89 -104 0 -14 5 -26 10 -26 6 0 10 -13 10 -30
0 -16 -4 -30 -10 -30 -5 0 -10 -13 -10 -30 0 -19 -5 -30 -14 -30 -8 0 -17 -11
-20 -25 -5 -18 -15 -27 -36 -32 -17 -3 -30 -12 -30 -19 0 -12 -615 -14 -4015
-14 -3562 0 -4015 2 -4015 15 0 8 -7 15 -15 15 -8 0 -15 7 -15 15 0 8 -7 15
-15 15 -8 0 -15 7 -15 15 0 8 -7 15 -15 15 -12 0 -15 17 -15 90 0 73 3 90 15
90 8 0 15 7 15 15 0 8 7 15 15 15 8 0 15 6 15 14 0 8 14 17 30 21 17 4 30 11
30 16 0 5 1570 9 4000 9 2660 0 4000 -3 4000 -10z"/>
<path d="M5400 11795 c0 -10 -10 -15 -30 -15 -20 0 -30 -5 -30 -15 0 -8 -7
-15 -15 -15 -8 0 -15 -7 -15 -15 0 -11 12 -15 45 -15 33 0 45 4 45 15 0 12 18
15 105 15 87 0 105 3 105 15 0 10 -10 15 -30 15 -20 0 -30 5 -30 15 0 12 -15
15 -75 15 -60 0 -75 -3 -75 -15z"/>
<path d="M3580 10855 c0 -10 -10 -15 -30 -15 -20 0 -30 -5 -30 -15 0 -8 -7
-15 -15 -15 -10 0 -15 -10 -15 -30 0 -20 -5 -30 -15 -30 -12 0 -15 -15 -15
-75 0 -60 3 -75 15 -75 8 0 15 -9 15 -20 0 -11 7 -20 15 -20 8 0 15 -4 15 -10
0 -5 7 -10 15 -10 8 0 15 -7 15 -15 0 -10 10 -15 30 -15 18 0 33 -6 36 -15 7
-17 51 -20 56 -4 2 5 22 13 46 16 26 3 42 11 42 19 0 8 7 14 15 14 8 0 15 7
15 15 0 8 6 15 14 15 8 0 15 16 19 41 3 23 11 46 19 51 10 7 10 11 1 15 -7 2
-15 27 -19 54 -4 32 -11 49 -20 49 -8 0 -14 7 -14 15 0 8 -4 15 -10 15 -5 0
-10 7 -10 15 0 8 -9 15 -20 15 -11 0 -20 7 -20 15 0 12 -15 15 -75 15 -60 0
-75 -3 -75 -15z"/>
<path d="M5190 9460 c0 -5 7 -10 15 -10 8 0 15 -4 15 -10 0 -21 44 -52 81 -57
21 -3 39 -10 39 -14 0 -5 14 -9 30 -9 17 0 30 5 30 10 0 6 14 10 30 10 19 0
30 5 30 14 0 8 14 17 30 21 23 5 30 12 30 31 0 15 -6 24 -15 24 -8 0 -15 -4
-15 -10 0 -6 -47 -10 -120 -10 -73 0 -120 4 -120 10 0 6 -13 10 -30 10 -16 0
-30 -4 -30 -10z"/>
</g>
</svg>
